<?xml version="1.0" encoding="UTF-8"?>
<svg version="1.1" xmlns="http://www.w3.org/2000/svg" width="1024" height="1024">
<path d="M0 0 C-0.33 20.46 -0.66 40.92 -1 62 C7.25 62.99 15.5 63.98 24 65 C28.58849617 65.69674513 33.12970297 66.40815791 37.6875 67.25 C39.40876099 67.56469238 39.40876099 67.56469238 41.16479492 67.88574219 C126.83104084 83.95142338 207.68154023 119.7863901 277.01342773 172.69775391 C277.74376221 173.24866699 278.47409668 173.79958008 279.2265625 174.3671875 C279.86158691 174.85300293 280.49661133 175.33881836 281.15087891 175.83935547 C283.21866434 177.13724984 284.55620765 177.81172498 287 178 C289.29493199 176.91634995 289.29493199 176.91634995 291.578125 175.16015625 C292.47990479 174.5170752 293.38168457 173.87399414 294.31079102 173.21142578 C295.76569946 172.14770752 295.76569946 172.14770752 297.25 171.0625 C299.32520377 169.57976252 301.4020808 168.09936459 303.48046875 166.62109375 C304.55345215 165.85522949 305.62643555 165.08936523 306.73193359 164.30029297 C311.93851412 160.63553862 317.24849542 157.13131665 322.5625 153.625 C329.87647768 148.78200766 337.07641279 143.84737571 344.17578125 138.6953125 C350.39956032 134.24950774 356.82583517 130.08862048 363.21289062 125.8828125 C368.0520175 122.68444708 372.82436815 119.43384359 377.5 116 C383.14913116 111.85120611 388.95984189 107.97907431 394.8125 104.125 C402.35313147 99.12982612 409.79890134 94.06361878 417.12109375 88.75390625 C423.57878103 84.12141129 430.20604448 79.72742984 436.7890625 75.27587891 C443.82963468 70.50552768 450.77665098 65.63709541 457.62109375 60.58984375 C460 59 460 59 462 59 C462 169.55 462 280.1 462 394 C458.35968745 392.54387498 456.19706071 391.61856445 453.20703125 389.41796875 C452.50384766 388.90492188 451.80066406 388.391875 451.07617188 387.86328125 C450.32916016 387.31027344 449.58214844 386.75726562 448.8125 386.1875 C447.19411323 385.00376568 445.57562071 383.82017591 443.95703125 382.63671875 C443.13283691 382.03134277 442.30864258 381.4259668 441.45947266 380.80224609 C437.65457703 378.01410439 433.82686402 375.2578653 430 372.5 C428.49859499 371.41550706 426.99729318 370.33087125 425.49609375 369.24609375 C422.51090892 367.08994701 419.52378612 364.93652496 416.53515625 362.78515625 C408.02079319 356.65243321 399.54783798 350.46767211 391.10791016 344.23291016 C383.5233116 338.63567826 375.8841167 333.11591373 368.23388672 327.60888672 C363.73476831 324.36853805 359.24175881 321.11972298 354.74755859 317.87255859 C351.012055 315.17401978 347.2751852 312.47742047 343.53515625 309.78515625 C335.82536602 304.2319507 328.14265447 298.64531996 320.5 293 C314.1200186 288.29059057 307.7300763 283.5955908 301.3125 278.9375 C300.59449219 278.41349609 299.87648438 277.88949219 299.13671875 277.34960938 C294.54370848 274.02526767 289.84649406 270.94231133 285 268 C284.34257813 268.57105469 283.68515625 269.14210938 283.0078125 269.73046875 C274.80604569 276.7208635 266.22211033 283.05587525 257.42822266 289.27929688 C254.99162614 291.00593394 252.56401275 292.74469281 250.13671875 294.484375 C208.70483731 324.01696423 162.97503487 348.06763475 115 365 C113.95440918 365.3722168 112.90881836 365.74443359 111.83154297 366.12792969 C64.66113808 382.79636919 13.07246519 393.98846148 -37.10546875 394.23828125 C-37.81452173 394.24235678 -38.52357471 394.2464323 -39.25411415 394.25063133 C-43.0269095 394.27136333 -46.79967016 394.28570493 -50.57250977 394.29516602 C-53.61178386 394.30390509 -56.65058255 394.32450456 -59.68969727 394.35668945 C-151.44520659 395.30555241 -242.63822451 363.97048257 -366 279 C-366.58700684 278.51208984 -367.17401367 278.02417969 -367.77880859 277.52148438 C-382.70893441 265.08602315 -397.50140775 251.83915567 -410.19140625 237.09765625 C-412.24980358 234.71027101 -414.34122086 232.35416937 -416.4375 230 C-417.45650391 228.8553125 -417.45650391 228.8553125 -418.49609375 227.6875 C-418.99238281 227.130625 -419.48867188 226.57375 -420 226 C-418.51151188 222.60655558 -416.5673138 220.21770033 -414.0625 217.5 C-413.26070313 216.62730469 -412.45890625 215.75460937 -411.6328125 214.85546875 C-410.76398438 213.91316406 -409.89515625 212.97085938 -409 212 C-408.07934571 210.97650317 -407.16009869 209.95173891 -406.2421875 208.92578125 C-401.67194812 203.83896851 -397.06694851 198.96837602 -391.81640625 194.56640625 C-390.00067355 193.00058084 -388.35057296 191.3509788 -386.6875 189.625 C-383.03405535 185.91382598 -379.04853954 182.69296605 -374.9921875 179.43359375 C-372.47350907 177.38511247 -370.00974426 175.28870223 -367.55908203 173.15991211 C-305.38264837 119.42490783 -223.88900293 82.93447853 -143.5625 67.25 C-142.38388397 67.01737961 -142.38388397 67.01737961 -141.18145752 66.78005981 C-126.6716038 63.92934007 -126.6716038 63.92934007 -120.60546875 63.5625 C-104.82111013 62.55112168 -92.0621528 52.80605648 -79.05517578 44.56005859 C-73.49907213 41.040019 -67.87014567 37.6418299 -62.24069214 34.24087524 C-60.50350212 33.1896193 -58.76905344 32.13398142 -57.03540039 31.0769043 C-48.60371394 25.94208029 -40.10773826 20.92744377 -31.55981445 15.98876953 C-26.72580387 13.19222096 -21.92352925 10.35803163 -17.16796875 7.4296875 C-15.78158203 6.5795105 -15.78158203 6.5795105 -14.3671875 5.7121582 C-12.6234912 4.63871105 -10.88489059 3.55692718 -9.15234375 2.46557617 C-8.3840625 1.9935376 -7.61578125 1.52149902 -6.82421875 1.03515625 C-6.15479248 0.6162915 -5.48536621 0.19742676 -4.7956543 -0.23413086 C-3 -1 -3 -1 0 0 Z M-245.03027344 166.98632812 C-246.36202185 167.67168006 -247.69608155 168.35255644 -249.03222656 169.02929688 C-272.45783463 180.90239884 -294.3157686 195.6083096 -314 213 C-315.45986328 214.27617188 -315.45986328 214.27617188 -316.94921875 215.578125 C-321.91317594 219.8969416 -321.91317594 219.8969416 -326 225 C-318.36641194 232.85203732 -310.69396744 240.30621331 -302 247 C-301.41911621 247.45197754 -300.83823242 247.90395508 -300.23974609 248.36962891 C-290.18994345 256.16935912 -279.8148096 263.30463825 -269 270 C-268.02571045 270.60593994 -268.02571045 270.60593994 -267.03173828 271.22412109 C-219.37046152 300.99079968 -219.37046152 300.99079968 -166 315 C-166 302.46 -166 289.92 -166 277 C-164.35 276.67 -162.7 276.34 -161 276 C-158.43680464 274.93071546 -155.93062375 273.82485183 -153.41796875 272.6484375 C-152.68612869 272.31131744 -151.95428864 271.97419739 -151.20027161 271.62686157 C-148.86032119 270.54793058 -146.52378761 269.46183645 -144.1875 268.375 C-141.88990723 267.31089795 -139.59158699 266.24840123 -137.29255676 265.18740845 C-135.86766865 264.52932468 -134.443638 263.86937843 -133.02079773 263.20687866 C-125.39889178 259.67602926 -117.70275342 256.36995462 -110 253 C-109.67 277.75 -109.34 302.5 -109 328 C-83.2848326 330.9671347 -58.86622451 332.74136374 -33.1875 331.25 C-32.45378174 331.20743073 -31.72006348 331.16486145 -30.96411133 331.1210022 C57.63220962 325.82883908 141.18161993 294.75576815 226.29345703 232.36352539 C230.10389691 229.40775927 233.95048125 226.61990637 238 224 C233.86554383 219.5942972 229.30822547 216.06125657 224.4375 212.5 C223.60831055 211.89196533 222.77912109 211.28393066 221.92480469 210.6574707 C208.1485407 200.65635829 193.74289525 191.50799772 179 183 C178.33919434 182.61811523 177.67838867 182.23623047 176.99755859 181.84277344 C88.68454368 131.12344156 -16.99512445 109.00639807 -245.03027344 166.98632812 Z M387.8125 184.8125 C382.5822747 189.09559262 377.33145113 193.34351153 372 197.5 C366.18994618 202.03097481 360.48113928 206.67757233 354.78515625 211.35083008 C349.9462895 215.29610197 344.99206711 218.97603626 339.84375 222.51171875 C338.93109375 223.24841797 338.93109375 223.24841797 338 224 C338 224.66 338 225.32 338 226 C339.75996248 227.48142929 341.58766884 228.88243816 343.4375 230.25 C348.89258161 234.3399781 354.19396902 238.57988139 359.4375 242.9375 C365.20293475 247.72128225 371.02710861 252.40803347 376.94384766 257.00292969 C381.74523059 260.75178239 386.39535732 264.66512374 391.00292969 268.64916992 C393.21320335 270.97376431 393.21320335 270.97376431 396 272 C396 241.31 396 210.62 396 179 C393.38894722 179 389.88076714 183.10765422 387.8125 184.8125 Z " fill="#17BADB" transform="translate(487,310)"/>
<path d="M0 0 C4.19368221 3.51308462 7.66062369 7.92212351 8.63671875 13.37109375 C9.16621628 19.72506412 8.35535743 24.1084589 4.63671875 29.37109375 C-0.09797975 34.44238219 -4.66580343 37.36264197 -11.67578125 37.74609375 C-17.48706844 37.58198763 -21.88049454 35.69423342 -26.125 31.72265625 C-30.69071633 26.65946478 -32.82393093 22.42207056 -32.61328125 15.41796875 C-31.86498955 9.29133045 -28.57598041 4.68176266 -24.36328125 0.37109375 C-16.44946271 -4.31259477 -7.99239553 -5.08606988 0 0 Z " fill="#17BADB" transform="translate(264.36328125,512.62890625)"/>
</svg>
